<svg width="229" height="29" viewBox="0 0 229 29" fill="none" xmlns="http://www.w3.org/2000/svg">
<path d="M56.2721 14.0617C56.2721 14.7234 56.2125 15.3549 56.0634 15.8061H44.6122C44.8806 17.8813 46.3418 19.2046 48.5486 19.2046C50.1291 19.2046 51.2921 18.5128 51.9183 17.4L55.4968 19.1143C54.5127 21.5203 51.8289 23.1143 48.4889 23.1143C43.3299 23.1143 39.9602 19.2647 39.9602 14.5128C39.9602 9.61057 43.5387 5.97147 48.1907 5.97147C52.7533 5.97147 56.2721 9.52035 56.2721 14.0617ZM44.7017 12.4978H51.5306C51.3517 10.7534 50.0396 9.5805 48.1907 9.5805C46.4313 9.5805 45.149 10.6031 44.7017 12.4978Z" fill="white"/>
<path d="M65.7894 23.1143C60.8988 23.1143 57.1712 19.4151 57.1712 14.5128C57.1712 9.64065 60.869 5.97147 65.7894 5.97147C69.4275 5.97147 72.4096 7.98651 73.3937 11.0241L69.5766 12.8888C69.0697 11.1444 67.6084 10.0316 65.7894 10.0316C63.4335 10.0316 61.7934 11.8963 61.7934 14.5429C61.7934 17.1895 63.4335 19.0542 65.7894 19.0542C67.6383 19.0542 69.0697 17.9414 69.5766 16.197L73.3937 18.0918C72.4692 21.0091 69.4871 23.1143 65.7894 23.1143Z" fill="white"/>
<path d="M75.1894 22.7534V0.347412H79.6625V22.7534H75.1894Z" fill="white"/>
<path d="M82.6446 4.85869V0.347412H87.1177V4.85869H82.6446ZM82.6446 22.7534V6.33238H87.1177V22.7534H82.6446Z" fill="white"/>
<path d="M99.2547 5.97147C103.877 5.97147 107.515 9.73087 107.515 14.5429C107.515 19.3249 103.937 23.1143 99.2249 23.1143C97.3164 23.1143 95.6763 22.4828 94.5729 21.4602V28.7685H90.0998V6.33238H94.2747V8.04666C95.4079 6.72335 97.1673 5.97147 99.2547 5.97147ZM98.6882 19.0542C101.133 19.0542 102.893 17.1594 102.893 14.5429C102.893 11.9264 101.133 10.0316 98.6882 10.0316C96.2727 10.0316 94.5729 11.8963 94.5729 14.5429C94.5729 17.1895 96.2727 19.0542 98.6882 19.0542Z" fill="white"/>
<path d="M116.202 23.1143C112.653 23.1143 109.731 21.37 108.717 18.3925L112.027 16.8286C112.892 18.6632 114.353 19.6557 116.202 19.6557C117.603 19.6557 118.498 19.0843 118.498 18.182C118.498 17.0993 117.186 16.7685 116.619 16.6181L113.756 15.8662C110.804 15.0843 109.373 13.3399 109.373 11.0843C109.373 8.04666 111.967 5.97147 115.784 5.97147C119.124 5.97147 121.778 7.59554 122.822 10.2722L119.482 11.8361C118.945 10.4226 117.544 9.5805 115.784 9.5805C114.472 9.5805 113.697 10.0918 113.697 10.9339C113.697 11.9264 114.83 12.2271 115.367 12.3775L118.379 13.1895C121.271 13.9715 122.822 15.6557 122.822 18.0016C122.822 21.0391 120.108 23.1143 116.202 23.1143Z" fill="white"/>
<path d="M140.318 14.0617C140.318 14.7234 140.258 15.3549 140.109 15.8061H128.658C128.926 17.8813 130.387 19.2046 132.594 19.2046C134.175 19.2046 135.338 18.5128 135.964 17.4L139.542 19.1143C138.558 21.5203 135.874 23.1143 132.534 23.1143C127.375 23.1143 124.006 19.2647 124.006 14.5128C124.006 9.61057 127.584 5.97147 132.236 5.97147C136.799 5.97147 140.318 9.52035 140.318 14.0617ZM128.747 12.4978H135.576C135.397 10.7534 134.085 9.5805 132.236 9.5805C130.477 9.5805 129.195 10.6031 128.747 12.4978Z" fill="white"/>
<path d="M162.539 6.33238H167.191L161.584 22.7534H157.648L153.92 11.8061L150.163 22.7534H146.227L140.62 6.33238H145.242L148.254 16.1369L151.415 6.33238H156.395L159.556 16.1369L162.539 6.33238Z" fill="white"/>
<path d="M176.192 23.1143C171.361 23.1143 167.485 19.5053 167.485 14.5429C167.485 9.5805 171.361 5.97147 176.192 5.97147C181.023 5.97147 184.9 9.5805 184.9 14.5429C184.9 19.5053 181.023 23.1143 176.192 23.1143ZM176.192 19.0542C178.637 19.0542 180.278 17.1895 180.278 14.5429C180.278 11.9264 178.637 10.0316 176.192 10.0316C173.747 10.0316 172.107 11.9264 172.107 14.5429C172.107 17.1895 173.747 19.0542 176.192 19.0542Z" fill="white"/>
<path d="M195.576 6.15192H197.276V10.0617H195.129C192.952 10.0617 191.461 11.4752 191.461 13.9113V22.7534H186.988V6.33238H191.163V8.79854C191.998 6.75343 193.578 6.15192 195.576 6.15192Z" fill="white"/>
<path d="M214.61 6.33238L208.706 12.9489L214.61 22.7534H209.749L205.813 16.167L203.547 18.6331V22.7534H199.074V0.347412H203.547V12.5579L209.392 6.33238H214.61Z" fill="white"/>
<path d="M222.38 23.1143C218.831 23.1143 215.909 21.37 214.895 18.3925L218.205 16.8286C219.07 18.6632 220.531 19.6557 222.38 19.6557C223.781 19.6557 224.676 19.0843 224.676 18.182C224.676 17.0993 223.364 16.7685 222.797 16.6181L219.935 15.8662C216.982 15.0843 215.551 13.3399 215.551 11.0843C215.551 8.04666 218.145 5.97147 221.962 5.97147C225.302 5.97147 227.956 7.59554 229 10.2722L225.66 11.8361C225.123 10.4226 223.722 9.5805 221.962 9.5805C220.65 9.5805 219.875 10.0918 219.875 10.9339C219.875 11.9264 221.008 12.2271 221.545 12.3775L224.557 13.1895C227.449 13.9715 229 15.6557 229 18.0016C229 21.0391 226.286 23.1143 222.38 23.1143Z" fill="white"/>
<path fill-rule="evenodd" clip-rule="evenodd" d="M25.311 14.5C25.311 20.59 20.4158 25.5269 14.3773 25.5269C12.5695 25.5269 10.8643 25.0845 9.3621 24.3011C9.5113 24.3079 9.66139 24.3114 9.81227 24.3114C15.1851 24.3114 19.5406 19.9187 19.5406 14.5C19.5406 9.08133 15.1851 4.68862 9.81227 4.68862C9.66138 4.68862 9.5113 4.69209 9.3621 4.69894C10.8643 3.91552 12.5695 3.47305 14.3773 3.47305C20.4158 3.47305 25.311 8.40999 25.311 14.5ZM28.7546 14.5C28.7546 22.5081 22.3177 29 14.3773 29C6.43694 29 0 22.5081 0 14.5C0 6.49187 6.43694 0 14.3773 0C22.3177 0 28.7546 6.49187 28.7546 14.5Z" fill="white"/>
</svg>
